<?xml version="1.0" standalone="no"?>
<!DOCTYPE svg PUBLIC "-//W3C//DTD SVG 20010904//EN"
 "http://www.w3.org/TR/2001/REC-SVG-20010904/DTD/svg10.dtd">
<svg version="1.0" xmlns="http://www.w3.org/2000/svg"
 width="640.000000pt" height="640.000000pt" viewBox="0 0 640.000000 640.000000"
 preserveAspectRatio="xMidYMid meet">

<g transform="translate(0.000000,640.000000) scale(0.100000,-0.100000)"
fill="#000000" stroke="none">
<path d="M670 4206 l0 -33 100 -6 c122 -6 166 -25 195 -82 19 -39 20 -63 23
-818 2 -458 -1 -807 -7 -848 -17 -124 -62 -158 -218 -167 l-93 -5 0 -33 0 -34
470 0 470 0 0 34 0 33 -94 5 c-122 7 -162 26 -196 94 l-25 49 -3 747 c-2 458
1 783 7 838 17 151 48 178 212 187 l99 6 0 33 0 34 -470 0 -470 0 0 -34z"/>
<path d="M4137 4133 c-3 -49 -2 -91 1 -95 4 -4 37 -10 73 -14 l66 -6 54 55
c71 72 95 77 404 77 l245 0 0 -807 c0 -450 -4 -845 -10 -891 -17 -151 -56
-182 -240 -191 l-115 -6 -3 -32 -3 -33 510 0 511 0 0 34 0 33 -113 5 c-185 7
-222 38 -237 200 -5 51 -10 452 -10 891 l0 799 273 -4 c309 -4 320 -6 391 -90
35 -40 39 -42 102 -46 36 -3 69 -1 74 4 4 5 6 53 3 107 l-6 97 -982 0 -982 0
-6 -87z"/>
<path d="M2396 3985 c-33 -13 -80 -37 -105 -53 -46 -28 -47 -28 -76 -10 -17
10 -54 27 -84 39 -67 25 -198 27 -285 4 -158 -42 -311 -166 -382 -310 -35 -71
-39 -86 -38 -155 1 -139 71 -221 187 -220 119 2 225 93 262 225 18 66 29 175
17 175 -5 0 -12 -33 -15 -72 -7 -99 -40 -180 -96 -237 -96 -98 -225 -94 -285
9 -17 28 -21 52 -21 121 1 77 4 92 38 163 60 126 165 215 317 267 121 41 289
26 372 -33 l28 -19 -50 -50 c-60 -62 -144 -183 -240 -349 -92 -160 -144 -233
-211 -295 -76 -71 -105 -81 -191 -67 -94 16 -127 15 -135 -4 -13 -34 1 -35
407 -37 101 -1 123 3 182 26 168 65 294 189 349 342 45 125 23 311 -47 402
-20 27 -25 40 -17 52 10 16 119 76 178 98 17 6 23 11 15 12 -8 0 -42 -10 -74
-24z m-124 -153 c60 -101 29 -345 -64 -499 -91 -151 -258 -253 -419 -253 -70
0 -149 10 -149 20 0 3 24 17 52 31 68 31 172 130 235 222 27 39 92 146 142
237 89 158 163 270 179 270 4 0 15 -13 24 -28z"/>
<path d="M4486 3782 c-10 -31 8 -64 66 -118 85 -80 138 -100 61 -23 -24 23
-46 60 -58 96 -15 44 -25 59 -42 61 -14 2 -23 -3 -27 -16z"/>
<path d="M2612 3500 c-76 -36 -164 -121 -207 -200 -39 -73 -42 -157 -7 -192
19 -20 33 -23 90 -23 75 1 140 28 222 93 25 20 50 39 56 43 7 6 10 -8 10 -42
0 -72 25 -94 107 -94 48 0 75 6 122 29 69 34 180 140 210 201 11 22 21 42 22
44 1 2 18 -4 37 -13 19 -9 48 -16 66 -16 17 0 30 -3 28 -7 -52 -101 -54 -168
-8 -215 28 -28 35 -30 83 -26 29 2 75 15 103 28 67 32 163 131 200 205 l30 60
34 -23 c29 -20 43 -23 83 -18 26 3 47 3 47 1 0 -2 -24 -42 -53 -87 -29 -46
-63 -100 -76 -120 l-23 -38 41 0 c39 0 40 1 78 72 26 51 66 100 138 173 55 56
114 111 130 122 l30 21 -3 -49 c-3 -41 0 -52 22 -74 27 -27 72 -33 107 -15 25
14 24 12 -8 -46 -37 -66 -39 -152 -5 -186 19 -19 33 -23 90 -23 58 1 77 6 138
38 84 45 205 152 259 231 21 31 36 58 33 61 -2 3 -22 -20 -43 -50 -89 -130
-277 -265 -369 -265 -51 0 -71 72 -45 159 10 35 14 38 100 65 184 58 279 160
182 197 -55 21 -142 -15 -243 -101 -83 -71 -129 -87 -158 -58 -20 20 -14 79
13 125 l26 43 -35 0 c-19 0 -39 -6 -43 -14 -4 -7 -35 -35 -68 -61 -33 -26 -82
-68 -109 -94 l-49 -46 67 99 c36 54 66 100 66 102 0 2 -16 4 -35 4 -33 0 -39
-5 -83 -75 -50 -79 -84 -105 -142 -105 -40 0 -90 47 -90 85 0 35 -27 81 -57
94 -71 32 -187 -13 -281 -108 -54 -55 -64 -61 -101 -61 -22 0 -52 5 -66 12
-22 10 -25 17 -25 63 0 65 -27 107 -57 89 -14 -9 -17 -22 -15 -65 4 -74 -44
-173 -127 -261 -91 -98 -172 -127 -206 -74 -19 28 -13 58 23 131 28 56 136
217 158 235 24 20 16 30 -24 30 -37 0 -40 -3 -113 -107 -110 -160 -201 -243
-311 -285 -64 -24 -93 -23 -112 4 -18 26 -21 101 -5 146 9 27 19 33 82 52 143
44 237 108 237 162 0 56 -72 64 -168 18z m106 -18 c5 -32 -22 -68 -75 -102
-48 -31 -141 -66 -150 -57 -14 14 102 147 152 176 33 18 70 9 73 -17z m982 13
c22 -27 7 -117 -33 -197 -58 -118 -147 -198 -220 -198 -32 0 -39 4 -48 28 -15
37 -4 95 32 167 71 146 222 257 269 200z m938 -16 c4 -31 -32 -77 -82 -109
-36 -22 -146 -63 -146 -54 0 12 25 52 58 93 76 93 163 129 170 70z"/>
<path d="M2764 2900 c-83 -27 -152 -89 -188 -170 -119 -265 27 -530 292 -530
86 0 129 12 191 55 28 19 53 35 56 35 3 0 11 -13 16 -30 6 -16 17 -30 25 -30
11 0 14 24 14 120 0 92 -3 120 -13 120 -7 0 -19 -22 -26 -49 -20 -79 -61 -134
-122 -165 -120 -59 -258 -14 -319 105 -27 52 -44 161 -36 238 17 190 99 291
237 291 124 0 220 -85 245 -216 6 -34 30 -43 28 -11 0 10 -1 69 -2 133 -2 86
-5 115 -14 112 -7 -3 -15 -18 -19 -35 -10 -53 -17 -55 -57 -23 -83 66 -201 85
-308 50z"/>
<path d="M1720 2895 c0 -10 10 -15 28 -15 16 0 37 -6 48 -14 18 -14 19 -31 22
-293 3 -259 2 -281 -15 -302 -10 -12 -34 -26 -52 -30 -19 -3 -36 -12 -39 -19
-3 -9 28 -12 127 -12 72 0 131 4 131 9 0 5 -20 14 -44 20 -79 20 -76 8 -76
318 0 152 3 273 8 269 4 -4 113 -148 242 -319 129 -171 241 -313 248 -315 9
-3 12 65 12 317 0 305 1 322 19 340 11 11 36 23 56 27 20 3 34 11 32 18 -5 14
-247 16 -248 1 0 -5 18 -14 39 -18 73 -14 73 -15 70 -274 l-3 -230 -203 268
-203 269 -99 0 c-82 0 -100 -3 -100 -15z"/>
<path d="M3270 2895 c0 -10 10 -15 33 -15 18 0 42 -6 53 -14 18 -14 19 -29 19
-304 0 -223 -3 -293 -13 -305 -7 -8 -31 -18 -53 -22 -84 -14 -33 -25 121 -25
156 0 206 11 115 24 -29 5 -49 14 -55 26 -13 24 -13 579 -1 599 5 8 28 17 51
20 22 3 42 11 43 16 1 6 -57 11 -155 13 -136 2 -158 0 -158 -13z"/>
<path d="M3648 2904 c-14 -13 3 -24 37 -24 63 0 65 -10 65 -320 0 -311 -1
-315 -71 -326 -84 -14 -32 -24 121 -24 159 0 199 9 118 26 -60 13 -68 34 -68
182 l0 122 94 0 c108 0 149 11 193 53 41 38 56 85 51 152 -6 66 -34 106 -96
137 -43 21 -62 23 -242 26 -107 2 -198 0 -202 -4z m363 -39 c91 -47 95 -221 7
-279 -13 -9 -56 -18 -96 -22 l-72 -7 0 160 c0 88 3 163 8 167 11 12 119 -2
153 -19z"/>
<path d="M4230 2895 c0 -10 10 -15 33 -15 18 0 42 -6 53 -14 18 -14 19 -29 19
-304 0 -223 -3 -293 -13 -305 -7 -8 -31 -18 -53 -22 -84 -14 -33 -25 121 -25
156 0 206 11 115 24 -29 5 -49 14 -55 26 -13 24 -13 579 -1 599 5 8 28 17 51
20 22 3 42 11 43 16 1 6 -57 11 -155 13 -136 2 -158 0 -158 -13z"/>
</g>
</svg>
